<svg xmlns="http://www.w3.org/2000/svg" version="1.1" xmlns:xlink="http://www.w3.org/1999/xlink" xmlns:svgjs="http://svgjs.dev/svgjs" width="1920" height="1080" preserveAspectRatio="none" viewBox="0 0 1920 1080"><g mask="url(&quot;#SvgjsMask1001&quot;)" fill="none"><rect width="1920" height="1080" x="0" y="0" fill="#1e3266"></rect><path d="M1984 1080L0 1080 L0 542.69Q74.17 520.86, 96 595.03Q160.31 499.34, 256 563.65Q313.65 525.3, 352 582.95Q477.04 547.99, 512 673.03Q571.4 636.43, 608 695.83Q663.27 655.11, 704 710.38Q738.91 585.29, 864 620.2Q897.07 557.27, 960 590.33Q1085.77 556.1, 1120 681.87Q1175.86 641.73, 1216 697.58Q1243.66 565.25, 1376 592.91Q1405.14 526.05, 1472 555.19Q1559.71 482.9, 1632 570.61Q1729.05 507.66, 1792 604.72Q1814.24 530.96, 1888 553.2Q1949.4 518.6, 1984 580z" fill="#182f5d"></path><path d="M1984 1080L0 1080 L0 832.61Q19 691.61, 160 710.61Q193.13 647.75, 256 680.88Q324.19 653.07, 352 721.25Q425.88 635.13, 512 709.02Q648.3 685.32, 672 821.61Q687.58 677.19, 832 692.77Q926.66 627.43, 992 722.1Q1090.94 661.04, 1152 759.98Q1223.46 671.44, 1312 742.91Q1434.52 705.43, 1472 827.95Q1485.47 745.42, 1568 758.9Q1574.16 669.06, 1664 675.22Q1781.6 632.82, 1824 750.41Q1934.86 701.26, 1984 812.12z" fill="#25467d"></path><path d="M2016 1080L0 1080 L0 940.69Q50.13 894.82, 96 944.95Q159.01 847.97, 256 910.98Q287.67 782.65, 416 814.33Q510.73 749.06, 576 843.78Q660.1 831.88, 672 915.98Q758.15 906.13, 768 992.29Q796.02 924.31, 864 952.33Q891.66 820, 1024 847.66Q1056.61 784.26, 1120 816.87Q1189.8 790.67, 1216 860.48Q1316.34 800.82, 1376 901.15Q1420.83 785.98, 1536 830.81Q1607.78 742.59, 1696 814.37Q1833.57 791.93, 1856 929.5Q1928.31 841.81, 2016 914.11z" fill="#356cb1"></path><path d="M2016 1080L0 1080 L0 954.87Q157.12 951.99, 160 1109.12Q184.6 973.71, 320 998.31Q348 930.3, 416 958.3Q508.3 890.6, 576 982.9Q640.13 951.03, 672 1015.17Q783.76 966.93, 832 1078.7Q898.08 984.78, 992 1050.85Q1026.92 989.77, 1088 1024.69Q1129.77 906.47, 1248 948.24Q1341.33 881.57, 1408 974.89Q1551.14 958.03, 1568 1101.16Q1591.12 1028.28, 1664 1051.39Q1730.1 1021.49, 1760 1087.6Q1824.01 1055.61, 1856 1119.61Q1872.86 976.47, 2016 993.33z" fill="white"></path></g><defs><mask id="SvgjsMask1001"><rect width="1920" height="1080" fill="#ffffff"></rect></mask></defs></svg>