<svg xmlns="http://www.w3.org/2000/svg" version="1.1" xmlns:xlink="http://www.w3.org/1999/xlink" xmlns:svgjs="http://svgjs.dev/svgjs" width="1440" height="560" preserveAspectRatio="none" viewBox="0 0 1440 560"><g mask="url(&quot;#SvgjsMask1764&quot;)" fill="none"><rect width="1440" height="560" x="0" y="0" fill="url(&quot;#SvgjsLinearGradient1765&quot;)"></rect><path d="M 0,143 C 72,131.4 216,64.8 360,85 C 504,105.2 576,253.4 720,244 C 864,234.6 936,40.4 1080,38 C 1224,35.6 1368,193.2 1440,232L1440 560L0 560z" fill="rgba(255, 255, 255, 1)"></path><path d="M 0,382 C 96,403.4 288,489.2 480,489 C 672,488.8 768,385 960,381 C 1152,377 1344,451.4 1440,469L1440 560L0 560z" fill="#2264ab"></path></g><defs><mask id="SvgjsMask1764"><rect width="1440" height="560" fill="#ffffff"></rect></mask><linearGradient x1="84.72%" y1="139.29%" x2="15.28%" y2="-39.29%" gradientUnits="userSpaceOnUse" id="SvgjsLinearGradient1765"><stop stop-color="#0e2a47" offset="0"></stop><stop stop-color="rgba(43, 136, 255, 1)" offset="1"></stop></linearGradient></defs></svg>